<svg width="23" height="23" viewBox="0 0 23 23" fill="none" xmlns="http://www.w3.org/2000/svg">
<path d="M8.13994 0.272644C4.3951 1.26881 1.24059 4.46021 0.262876 8.22349C-0.0876254 9.57016 -0.0876254 12.5217 0.262876 13.8684C0.779405 15.8607 1.62799 17.2996 3.21447 18.8861C4.80095 20.4726 6.23985 21.3212 8.23217 21.8377C9.57884 22.1882 12.5304 22.1882 13.8771 21.8377C17.6773 20.8415 20.8502 17.687 21.8464 13.8869C22.2153 12.4849 22.1969 9.66239 21.8279 8.22349C20.8318 4.38643 17.7142 1.25036 13.8771 0.254196C12.5489 -0.0963058 9.44971 -0.077858 8.13994 0.272644ZM12.0508 4.93985C12.6411 5.45638 12.6965 5.93601 12.4013 9.21966C12.1061 12.6878 11.977 13.0752 11.0546 13.0752C10.1507 13.0752 10.0031 12.6878 9.70797 9.21966C9.41281 5.95446 9.44971 5.45638 10.0585 4.93985C10.741 4.34953 11.3682 4.34953 12.0508 4.93985ZM11.977 15.2889C12.7702 16.0821 12.1799 17.5026 11.0546 17.5026C10.3536 17.5026 9.76331 16.9122 9.76331 16.2112C9.76331 15.8976 9.92934 15.4918 10.1323 15.2889C10.3352 15.0859 10.741 14.9199 11.0546 14.9199C11.3682 14.9199 11.7741 15.0859 11.977 15.2889Z" fill="#605BFF"/>
</svg>
