<svg width="20" height="18" viewBox="0 0 20 18" fill="none" xmlns="http://www.w3.org/2000/svg">
<path fill-rule="evenodd" clip-rule="evenodd" d="M1.23966 9.87866H15.9482L11.4445 15.2625C11.0057 15.7861 11.0776 16.5653 11.6032 17.0012C12.13 17.4383 12.911 17.3667 13.3499 16.8431L19.5482 9.43412C19.5965 9.37609 19.6201 9.30817 19.656 9.24396C19.6858 9.1921 19.7217 9.14764 19.744 9.09084C19.7998 8.94884 19.8333 8.79942 19.8333 8.64877C19.8333 8.64754 19.8345 8.64507 19.8345 8.64383C19.8345 8.6426 19.8333 8.64013 19.8333 8.63889C19.8333 8.48824 19.7998 8.33883 19.744 8.19682C19.7217 8.14002 19.6858 8.09557 19.656 8.0437C19.6201 7.97949 19.5965 7.91158 19.5482 7.85354L13.3499 0.44454C13.1032 0.151884 12.7511 0 12.3966 0C12.1164 0 11.835 0.0938473 11.6032 0.286481C11.0776 0.722377 11.0057 1.50156 11.4445 2.02513L15.9482 7.409H1.23966C0.555366 7.409 0 7.9622 0 8.64383C0 9.32546 0.555366 9.87866 1.23966 9.87866Z" fill="black"/>
</svg>
