<svg width="21" height="18" viewBox="0 0 21 18" fill="none" xmlns="http://www.w3.org/2000/svg">
<path fill-rule="evenodd" clip-rule="evenodd" d="M19.3387 7.40889H4.04178L8.7256 2.02501C9.18199 1.50144 9.10722 0.722265 8.56058 0.286369C8.01265 -0.150762 7.20042 -0.0791416 6.74532 0.444428L0.299104 7.85343C0.248824 7.91146 0.223039 7.97938 0.185651 8.04359C0.154709 8.09545 0.117321 8.13991 0.0941148 8.19671C0.0360988 8.33872 0.00128924 8.48813 0.00128924 8.63878C0.00128924 8.64002 0 8.64248 0 8.64372C0 8.64495 0.00128924 8.64742 0.00128924 8.64866C0.00128924 8.79931 0.0360988 8.94872 0.0941148 9.09073C0.117321 9.14753 0.154709 9.19199 0.185651 9.24385C0.223039 9.30806 0.248824 9.37598 0.299104 9.43401L6.74532 16.843C7.00059 17.1357 7.36674 17.2876 7.73546 17.2876C8.02683 17.2876 8.31949 17.1937 8.56058 17.0011C9.10722 16.5652 9.18199 15.786 8.7256 15.2624L4.04178 9.87855H19.3387C20.0503 9.87855 20.6279 9.32535 20.6279 8.64372C20.6279 7.96209 20.0503 7.40889 19.3387 7.40889Z" fill="#030229"/>
</svg>
