<svg width="23" height="23" viewBox="0 0 23 23" fill="none" xmlns="http://www.w3.org/2000/svg">
<path d="M11.1194 22.2425C4.95515 22.223 -0.0181696 17.2449 4.99001e-05 11.1122C0.0182694 4.95277 5.00859 -0.0254097 11.1382 9.75849e-05C17.3013 0.0256049 22.2716 5.01471 22.2424 11.1456C22.2127 17.2965 17.2351 22.2619 11.1194 22.2425ZM6.69025 10.0269C6.49105 10.0287 6.33254 10.0396 6.17889 10.1058C5.30861 10.4806 5.11366 11.5446 5.80721 12.2436C6.69815 13.1412 7.6073 14.0206 8.50613 14.9109C9.21791 15.616 9.93211 15.6106 10.6402 14.8885C11.2142 14.3036 11.7856 13.7157 12.3614 13.1327C13.7406 11.7353 15.1247 10.3433 16.499 8.94162C16.8737 8.55962 16.9557 7.95473 16.7286 7.50471C16.4923 7.03525 15.9567 6.76318 15.4089 6.82877C15.0573 6.87067 14.7937 7.06015 14.5526 7.3043C12.9675 8.91065 11.3775 10.5115 9.79607 12.1209C9.62238 12.2977 9.51367 12.3098 9.3339 12.1276C8.75877 11.544 8.16725 10.9767 7.58119 10.404C7.32308 10.1526 7.02245 10.005 6.69025 10.0269Z" fill="#5B93FF"/>
</svg>
