<svg width="23" height="20" viewBox="0 0 23 20" fill="none" xmlns="http://www.w3.org/2000/svg">
<path d="M7.91563 0.206269C7.7953 0.326593 7.70936 0.635997 7.70936 0.893834V1.37513H5.93888C4.78721 1.37513 4.09964 1.44389 3.96213 1.5814C3.8418 1.70172 3.75586 2.26896 3.75586 2.95653V4.12539H12.8661H21.9935L21.9419 2.78464L21.8904 1.46107L20.0511 1.40951L18.1947 1.35794V0.842266C18.1947 0.464106 18.0916 0.292214 17.765 0.137512C17.2149 -0.103135 16.8196 0.206269 16.8196 0.876644V1.37513H15.1866H13.5537V0.876644C13.5537 0.206269 13.1583 -0.103135 12.6083 0.137512C12.2817 0.292214 12.1785 0.464106 12.1785 0.859455V1.37513H10.6315H9.08449V0.893834C9.08449 0.360971 8.80946 -4.76837e-07 8.39692 -4.76837e-07C8.24222 -4.76837e-07 8.03595 0.0859451 7.91563 0.206269Z" fill="#FF8F6B"/>
<path d="M3.68715 6.37706C3.41212 9.05856 2.22607 12.0151 0.696242 13.7512C0.129001 14.4044 -0.0428901 14.731 0.00867722 15.0747L0.0602446 15.556L8.96421 15.6076L17.8682 15.642L18.3838 15.0919C20.2746 13.0464 21.6842 9.67737 21.9248 6.60051L22.0279 5.15663H12.9177H3.80747L3.68715 6.37706Z" fill="#FF8F6B"/>
<path d="M21.7357 11.86C21.22 13.3555 19.1573 16.0885 18.1775 16.587C17.7822 16.7933 16.493 16.8449 10.7175 16.8449H3.75586V17.945C3.75586 18.7185 3.8418 19.131 4.03089 19.3201C4.27153 19.5607 5.30288 19.5951 12.9348 19.5951C20.0683 19.5951 21.6325 19.5607 21.7872 19.3545C21.9248 19.1998 21.9763 17.9621 21.9419 15.2806C21.9076 12.8054 21.8388 11.585 21.7357 11.86Z" fill="#FF8F6B"/>
</svg>
