<svg width="18" height="20" viewBox="0 0 18 20" fill="none" xmlns="http://www.w3.org/2000/svg">
<path fill-rule="evenodd" clip-rule="evenodd" d="M13.4109 0.76862L13.4119 1.51824C16.1665 1.73414 17.9862 3.6112 17.9891 6.48975L18 14.9155C18.0039 18.054 16.0322 19.985 12.8718 19.99L5.15188 20C2.01119 20.004 0.0148156 18.027 0.0108663 14.8796L5.64775e-06 6.55272C-0.00394366 3.65517 1.75153 1.78311 4.50617 1.53024L4.50518 0.780614C4.5042 0.340834 4.83001 0.00999952 5.26444 0.00999952C5.69886 0.00900002 6.02468 0.338835 6.02567 0.778615L6.02666 1.47826L11.8914 1.47027L11.8904 0.770619C11.8894 0.330839 12.2152 0.00100402 12.6497 4.52073e-06C13.0742 -0.000994979 13.4099 0.32884 13.4109 0.76862ZM1.52148 6.86157L16.4696 6.84158V6.49175C16.4272 4.34283 15.349 3.21539 13.4138 3.04748L13.4148 3.81709C13.4148 4.24688 13.0801 4.58771 12.6556 4.58771C12.2211 4.58871 11.8943 4.24888 11.8943 3.81909L11.8934 3.0095L6.02863 3.01749L6.02962 3.82609C6.02962 4.25687 5.70479 4.5967 5.27036 4.5967C4.83594 4.5977 4.50913 4.25887 4.50913 3.82809L4.50814 3.05847C2.58286 3.25138 1.51753 4.38281 1.52049 6.55072L1.52148 6.86157ZM12.2399 11.4043V11.4153C12.2498 11.8751 12.625 12.2239 13.0801 12.2139C13.5244 12.2029 13.8789 11.8221 13.869 11.3623C13.8483 10.9225 13.4918 10.5637 13.0485 10.5647C12.5944 10.5747 12.2389 10.9445 12.2399 11.4043ZM13.0554 15.892C12.6013 15.882 12.235 15.5032 12.234 15.0435C12.2241 14.5837 12.5884 14.2029 13.0426 14.1919H13.0525C13.5165 14.1919 13.8927 14.5707 13.8927 15.0405C13.8937 15.5102 13.5185 15.891 13.0554 15.892ZM8.17212 11.4203C8.19186 11.8801 8.56804 12.2389 9.02221 12.2189C9.46651 12.1979 9.82096 11.8181 9.80121 11.3583C9.79035 10.9085 9.42504 10.5587 8.98074 10.5597C8.52657 10.5797 8.17113 10.9605 8.17212 11.4203ZM9.02616 15.8471C8.57199 15.8671 8.1968 15.5082 8.17607 15.0485C8.17607 14.5887 8.53052 14.2089 8.98469 14.1879C9.42899 14.1869 9.79529 14.5367 9.80516 14.9855C9.82589 15.4463 9.47046 15.8261 9.02616 15.8471ZM4.10433 11.4553C4.12407 11.915 4.50025 12.2749 4.95442 12.2539C5.39872 12.2339 5.75317 11.8531 5.73243 11.3933C5.72256 10.9435 5.35725 10.5937 4.91196 10.5947C4.45779 10.6147 4.10334 10.9955 4.10433 11.4553ZM4.95837 15.8521C4.5042 15.8731 4.12901 15.5132 4.10828 15.0535C4.10729 14.5937 4.46273 14.2129 4.9169 14.1929C5.3612 14.1919 5.72749 14.5417 5.73737 14.9915C5.7581 15.4513 5.40365 15.8321 4.95837 15.8521Z" fill="#9A9AA9"/>
</svg>
