<svg width="42" height="42" viewBox="0 0 42 42" fill="none" xmlns="http://www.w3.org/2000/svg">
<rect width="41.3893" height="41.3893" rx="10" fill="#1D4E89"/>
<path d="M15.6158 26.6719C15.9553 26.7021 16.2534 26.5398 16.5137 26.2795C17.7661 25.0233 19.0186 23.7709 20.2748 22.5184C20.4483 22.3449 20.4483 22.3449 20.6256 22.5222C21.8743 23.7709 23.1305 25.0158 24.3717 26.272C24.7489 26.653 25.1979 26.7473 25.6883 26.6455C26.4843 26.4757 26.7823 25.4345 26.2126 24.8234C25.76 24.333 25.2809 23.8727 24.8093 23.4012C23.9567 22.5448 23.1041 21.6922 22.2478 20.8434C22.1271 20.7265 22.1308 20.6624 22.2478 20.5454C23.5304 19.2703 24.8131 17.9877 26.0919 16.705C26.6427 16.143 26.5258 15.2564 25.8543 14.8603C25.4016 14.5925 24.8168 14.6792 24.417 15.0753C23.24 16.2448 22.0667 17.418 20.8897 18.5913C20.7841 18.6969 20.6709 18.7988 20.5691 18.9119C20.4747 19.0213 20.4068 19.0062 20.3125 18.9082C19.4524 18.0443 18.5885 17.1804 17.7284 16.3203C17.3096 15.9015 16.8985 15.4752 16.4722 15.0716C15.9893 14.6113 15.3102 14.6113 14.8538 15.0452C14.3558 15.5205 14.352 16.241 14.85 16.7428C15.8158 17.7161 16.789 18.6818 17.7586 19.6513C18.034 19.9267 18.3093 20.2021 18.5847 20.4775C18.7809 20.6737 18.7809 20.6737 18.5923 20.8661C17.3172 22.1336 16.0459 23.4049 14.7708 24.6725C14.5444 24.8988 14.3973 25.1554 14.3935 25.4873C14.3784 26.2192 14.8425 26.6832 15.6158 26.6719Z" fill="white"/>
</svg>
