<svg width="20" height="20" viewBox="0 0 20 20" fill="none" xmlns="http://www.w3.org/2000/svg">
<path d="M5.91992 11.4697C7.32978 11.4697 8.45973 12.6105 8.45996 14.0303V17.4395C8.45996 18.8495 7.32992 20 5.91992 20H2.54004C1.14004 20 0 18.8495 0 17.4395V14.0303C0.000228257 12.6105 1.14018 11.4697 2.54004 11.4697H5.91992ZM17.46 11.4697C18.8598 11.4697 19.9998 12.6105 20 14.0303V17.4395C20 18.8495 18.86 20 17.46 20H14.0801C12.6701 20 11.54 18.8494 11.54 17.4395V14.0303C11.5403 12.6105 12.6702 11.4697 14.0801 11.4697H17.46ZM5.91992 0C7.32977 0 8.45972 1.14975 8.45996 2.56055V5.96973C8.45996 7.38973 7.32992 8.53027 5.91992 8.53027H2.54004C1.14004 8.53027 0 7.38973 0 5.96973V2.56055C0.000244092 1.14975 1.14019 0 2.54004 0H5.91992ZM17.46 0C18.8598 0 19.9998 1.14975 20 2.56055V5.96973C20 7.38973 18.86 8.53027 17.46 8.53027H14.0801C12.6701 8.53026 11.54 7.38972 11.54 5.96973V2.56055C11.5403 1.14976 12.6702 1.19252e-05 14.0801 0H17.46Z" fill="#23518E"/>
</svg>
