<svg width="25" height="31" viewBox="0 0 25 31" fill="none" xmlns="http://www.w3.org/2000/svg">
<path d="M12.0134 9.4502C8.99221 9.4502 5.97106 9.4502 2.94991 9.4502C1.79181 9.4502 1.2757 9.96631 1.3764 11.1244C1.5904 13.5917 1.85475 16.0464 2.09392 18.501C2.32051 20.9431 2.5471 23.3852 2.77368 25.8273C2.82404 26.3057 2.84921 26.7966 2.93733 27.2624C3.25203 29.0247 4.72484 30.2961 6.51235 30.3087C10.1629 30.3213 13.8135 30.3213 17.464 30.3087C19.3774 30.2961 20.9006 28.8988 21.102 26.9854C21.3286 24.858 21.5174 22.7307 21.7188 20.6033C22.0083 17.5569 22.3104 14.5106 22.6 11.4769C22.6125 11.3132 22.6251 11.137 22.6251 10.9734C22.6629 10.0167 22.1468 9.46278 21.2027 9.46278C18.1438 9.4502 15.0849 9.4502 12.0134 9.4502ZM13.889 24.9336C13.8638 24.1783 14.0149 23.423 14.0526 22.6803C14.1911 20.3389 14.3547 17.9975 14.4932 15.6561C14.531 15.0645 14.5184 14.4854 14.5813 13.8938C14.6569 13.1511 15.2611 12.6476 15.8905 12.7231C16.5577 12.8112 17.0108 13.4155 16.9605 14.1204C16.7968 16.5499 16.6458 18.9668 16.4947 21.3963C16.4066 22.8565 16.3311 24.3293 16.2304 25.7896C16.18 26.5197 15.6136 27.0736 14.9842 27.0358C14.3296 26.998 13.9016 26.5071 13.889 25.7392C13.889 25.4875 13.889 25.2105 13.889 24.9336ZM10.0874 24.8706C10.1 24.8706 10.1 24.8706 10.1126 24.8706C10.1126 25.1476 10.1126 25.4119 10.1126 25.6889C10.1126 26.5071 9.70973 27.0106 9.02997 27.0484C8.37539 27.0861 7.82152 26.5323 7.77116 25.7392C7.62011 23.3978 7.49422 21.0564 7.35575 18.715C7.26764 17.2297 7.16693 15.7443 7.05364 14.2589C6.9907 13.4406 7.38093 12.8238 8.09845 12.7231C8.77821 12.635 9.36985 13.1889 9.43279 14.0071C9.65938 17.6325 9.87338 21.2453 10.0874 24.8706Z" fill="#39599F"/>
<path d="M12.0147 8.27983C15.4764 8.27983 18.9381 8.27983 22.3998 8.27983C23.5957 8.27983 24.0111 7.85184 24.0111 6.64338C24.0111 6.16503 24.0237 5.67409 24.0111 5.19574C23.9985 4.27681 23.5328 3.79846 22.6138 3.78588C21.0026 3.77329 19.3787 3.7607 17.7674 3.78588C17.2513 3.79846 17.0751 3.64741 17.0751 3.11871C17.0499 1.34378 15.6778 0.0220292 13.8903 0.00944109C12.6315 -0.00314703 11.3727 -0.00314703 10.1138 0.00944109C8.32634 0.0220292 6.96682 1.34378 6.94164 3.13129C6.94164 3.67258 6.74023 3.79846 6.23671 3.79846C4.68837 3.77329 3.12745 3.78588 1.57911 3.78588C0.446177 3.78588 0.00559235 4.22646 0.00559235 5.33421C0.00559235 5.83774 -0.00699615 6.34126 0.00559235 6.84479C0.0181808 7.80148 0.48394 8.27983 1.44064 8.27983C4.96531 8.29242 8.48998 8.27983 12.0147 8.27983ZM12.0021 3.78588C11.3475 3.78588 10.7055 3.79846 10.0509 3.78588C9.52221 3.77329 9.38374 3.53411 9.59774 3.05576C9.76138 2.69071 10.0761 2.61518 10.4286 2.62777C11.3727 2.62777 12.3168 2.62777 13.2483 2.62777C13.4623 2.62777 13.6763 2.61518 13.8777 2.65295C14.2931 2.74106 14.4693 3.018 14.4567 3.42082C14.4442 3.89917 14.0791 3.77329 13.8148 3.78588C13.2231 3.79846 12.6063 3.78588 12.0021 3.78588Z" fill="#39599F"/>
</svg>
