<svg width="20" height="20" viewBox="0 0 20 20" fill="none" xmlns="http://www.w3.org/2000/svg">
<path d="M11.1449 11.5132C11.2942 11.5008 11.3502 11.3888 11.4248 11.3142C12.1214 10.6176 12.8179 9.92104 13.5145 9.23069C14.0369 8.71448 14.7148 8.68339 15.2 9.15606C15.654 9.60385 15.654 10.3191 15.1564 10.8229C13.726 12.272 12.2831 13.7211 10.8277 15.1515C10.3053 15.6677 9.65228 15.674 9.13607 15.1702C7.6683 13.7211 6.21297 12.2657 4.76385 10.798C4.37203 10.4062 4.30984 9.90238 4.52752 9.45459C4.73275 9.03167 5.18055 8.79533 5.68432 8.83265C5.98285 8.85753 6.20675 9.00679 6.41199 9.21203C7.12099 9.92104 7.83 10.6363 8.54523 11.3453C8.61364 11.4137 8.67584 11.5567 8.78157 11.5008C8.88108 11.451 8.83132 11.3142 8.83132 11.2147C8.83132 7.88109 8.83132 4.54128 8.83754 1.2077C8.83754 0.448935 9.30399 -0.0175177 10.0254 0.00114041C10.6225 0.0135792 11.089 0.461374 11.1138 1.05843C11.1263 1.45025 11.1201 1.84829 11.1201 2.24012C11.1201 5.21298 11.1201 8.18584 11.1201 11.1587C11.1138 11.2706 11.0952 11.395 11.1449 11.5132Z" fill="black" fill-opacity="0.2"/>
<path d="M9.951 19.9341C8.09763 19.9341 6.24425 19.9403 4.38466 19.9341C1.95288 19.9279 0.0124387 17.975 0 15.5432C0 15.1701 0 14.7969 0 14.4237C0.00621937 13.7458 0.460234 13.2545 1.09461 13.242C1.74764 13.2296 2.25141 13.7147 2.27629 14.3926C2.28873 14.7534 2.27629 15.1203 2.28251 15.481C2.30739 16.7249 3.2092 17.6516 4.45307 17.6578C8.12872 17.6702 11.8106 17.6702 15.4862 17.6578C16.7426 17.6516 17.6506 16.7249 17.6692 15.4624C17.6755 15.1016 17.663 14.7347 17.6755 14.374C17.7003 13.8142 18.0673 13.3789 18.5959 13.2669C19.0997 13.1612 19.6035 13.4037 19.8398 13.8764C19.8771 13.9511 19.9207 14.0319 19.9269 14.1065C20.045 15.6863 19.9953 17.2287 18.826 18.485C17.974 19.393 16.9354 19.9279 15.6728 19.9341C13.7635 19.9465 11.8541 19.9341 9.951 19.9341Z" fill="black" fill-opacity="0.2"/>
</svg>
