<svg width="22" height="22" viewBox="0 0 22 22" fill="none" xmlns="http://www.w3.org/2000/svg">
<path d="M5.82794 2.19338C2.43825 3.78853 1.14219 4.46979 1.17543 4.63595C1.20866 4.80211 3.0032 5.64953 5.92764 6.87913L10.6134 8.85645L15.2991 6.87913C18.2236 5.64953 20.0181 4.80211 20.0513 4.63595C20.0846 4.45317 18.7885 3.78853 15.3822 2.19338C12.7901 0.980406 10.63 5.53131e-05 10.5968 5.53131e-05C10.5635 5.53131e-05 8.42005 0.997022 5.82794 2.19338Z" fill="#295593"/>
<path d="M0.0125938 11.5813L0.0624421 17.3471L4.88112 19.2911C7.5397 20.3546 9.74964 21.1688 9.83272 21.1189C9.89918 21.0525 9.93242 18.4603 9.9158 15.3697L9.86595 9.7535L5.21344 7.7928C2.65456 6.71275 0.427997 5.81548 0.261836 5.81548C-0.00402236 5.81548 -0.0206385 6.16442 0.0125938 11.5813Z" fill="#295593"/>
<path d="M16.0142 7.79312L11.3617 9.75382L11.3119 15.3701C11.2952 18.4773 11.3285 21.0528 11.3949 21.1193C11.478 21.1857 13.7046 20.3715 16.3465 19.3081L21.1652 17.364L21.2151 11.5816C21.2483 6.16474 21.2317 5.8158 20.9658 5.8158C20.7997 5.83242 18.5731 6.71307 16.0142 7.79312Z" fill="#295593"/>
</svg>
