<svg width="35" height="35" viewBox="0 0 35 35" fill="none" xmlns="http://www.w3.org/2000/svg">
<path d="M11.52 0.0242538C9.88623 0.0857773 7.57571 0.393391 6.39995 0.694164C3.94588 1.31623 1.73107 3.42167 0.862922 5.93725C0.534801 6.89427 0.247696 9.11592 0.0631286 12.0485C-0.107767 14.9195 0.0836361 20.4497 0.452771 22.9243C0.903937 26.0004 2.7291 29.2133 4.84138 30.6556C7.35697 32.3714 10.5493 33.6566 13.2495 34.0531C13.8647 34.1419 14.1108 34.1488 14.5073 34.0941C15.519 33.9368 16.476 33.2806 17.1527 32.2757C17.474 31.7972 17.8705 30.9017 17.9594 30.4574C18.0072 30.2045 18.0892 30.1635 18.766 30.0541C20.3792 29.808 21.8763 29.0219 23.1067 27.7983C24.1663 26.7319 25.0891 25.1596 25.0891 24.394C25.0891 23.6216 24.5559 23.0815 23.7903 23.0815C23.1614 23.0815 22.7855 23.3618 22.4573 24.0864C21.7737 25.5698 20.5228 26.7524 19.1351 27.2241C18.3285 27.4975 18.3422 27.5112 18.4037 26.684C18.6224 23.4917 18.6088 19.4244 18.3558 15.9723C18.1097 12.6637 17.85 11.488 16.9203 9.58076C16.1615 8.01535 15.0883 6.59349 14.0903 5.82788C13.0786 5.05543 10.9936 3.92752 9.47608 3.32596C8.92237 3.10038 8.70363 2.99101 8.79249 2.96366C9.03175 2.88847 11.0278 2.71758 12.101 2.66972C14.3842 2.58086 18.1371 2.95683 19.2923 3.39432C20.14 3.71561 21.1038 4.45388 21.7191 5.26051C21.8968 5.48609 22.1907 5.97144 22.3753 6.3269C22.7718 7.10618 22.8948 7.24974 23.2845 7.40013C23.9202 7.63938 24.6653 7.37278 24.9593 6.79857C25.1917 6.34741 25.1233 5.83472 24.7337 5.02809C23.845 3.20292 22.1019 1.58282 20.2835 0.899242C18.6771 0.297688 14.6713 -0.105625 11.52 0.0242538Z" fill="#39599F"/>
<path d="M28.8836 9.306C28.8494 9.31968 28.7332 9.34702 28.6307 9.36753C28.3778 9.42221 27.9608 9.79818 27.8514 10.0716C27.7352 10.3382 27.7284 10.8988 27.8309 11.1654C27.8719 11.2679 28.4735 11.931 29.1707 12.6351C29.6443 13.1086 29.311 13.9185 28.6413 13.9215L25.869 13.9339C21.4531 13.9544 21.289 13.9612 21.0292 14.0911C20.8789 14.1663 20.6669 14.344 20.5507 14.4876C20.3798 14.6995 20.3388 14.8225 20.3183 15.178C20.2773 15.7932 20.4961 16.1965 21.0019 16.4563C21.2412 16.5793 21.4804 16.5862 25.8895 16.5862H28.6178C29.3203 16.5862 29.6731 17.4348 29.1776 17.9328C28.2137 18.9035 27.8241 19.3479 27.7899 19.4914C27.7694 19.6008 27.7352 19.7512 27.7215 19.8195C27.6737 20.0519 27.8719 20.6262 28.0702 20.8381C28.1795 20.9543 28.3641 21.091 28.4871 21.1388C28.7469 21.2551 29.3074 21.2619 29.5809 21.1593C29.827 21.0705 34.7624 16.1487 34.8992 15.8616C35.0154 15.6086 35.0359 15.0413 34.9333 14.761C34.8513 14.5491 29.9432 9.59311 29.6697 9.44956C29.492 9.35386 28.9998 9.26499 28.8836 9.306Z" fill="#39599F"/>
</svg>
