<svg width="23" height="23" viewBox="0 0 23 23" fill="none" xmlns="http://www.w3.org/2000/svg">
<path d="M7.57046 0.0155907C6.49681 0.0560207 4.97844 0.258169 4.20578 0.455828C2.59307 0.86462 1.13759 2.24823 0.567076 3.90137C0.351449 4.53028 0.162776 5.99025 0.0414855 7.91742C-0.0708202 9.80415 0.0549621 13.4384 0.297542 15.0645C0.594029 17.086 1.79345 19.1974 3.18155 20.1453C4.83469 21.2728 6.93256 22.1173 8.70699 22.3779C9.11129 22.4363 9.27301 22.4408 9.53356 22.4048C10.1984 22.3015 10.8273 21.8703 11.2721 21.2099C11.4832 20.8955 11.7437 20.307 11.8021 20.015C11.8336 19.8488 11.8875 19.8218 12.3322 19.7499C13.3924 19.5882 14.3762 19.0716 15.1848 18.2675C15.8811 17.5667 16.4875 16.5335 16.4875 16.0304C16.4875 15.5228 16.1371 15.1679 15.634 15.1679C15.2207 15.1679 14.9736 15.352 14.758 15.8282C14.3088 16.803 13.4867 17.5802 12.5748 17.8902C12.0447 18.0698 12.0537 18.0788 12.0941 17.5353C12.2379 15.4374 12.2289 12.7645 12.0627 10.496C11.901 8.32172 11.7303 7.54905 11.1193 6.29572C10.6207 5.267 9.9154 4.33262 9.25953 3.82949C8.59468 3.32187 7.22456 2.58065 6.22728 2.18534C5.86341 2.03709 5.71966 1.96521 5.77806 1.94725C5.93529 1.89783 7.24702 1.78553 7.9523 1.75408C9.4527 1.69568 11.9189 1.94275 12.6781 2.23026C13.2352 2.44139 13.8686 2.92655 14.2729 3.45663C14.3897 3.60488 14.5828 3.92383 14.7041 4.15742C14.9647 4.66954 15.0455 4.76387 15.3016 4.8627C15.7194 5.01993 16.209 4.84473 16.4022 4.46739C16.5549 4.1709 16.51 3.83398 16.2539 3.3039C15.6699 2.10448 14.5244 1.03982 13.3295 0.590595C12.2738 0.195278 9.64137 -0.0697613 7.57046 0.0155907Z" fill="#9A9AA9"/>
<path d="M18.9813 6.11623C18.9588 6.12521 18.8824 6.14318 18.8151 6.15666C18.6488 6.19259 18.3748 6.43967 18.3029 6.61935C18.2266 6.79455 18.2221 7.16291 18.2895 7.33811C18.3164 7.40549 18.7117 7.84124 19.1699 8.30394C19.4811 8.61515 19.2621 9.14733 18.822 9.14931L17.0002 9.15746C14.0982 9.17094 13.9904 9.17543 13.8197 9.26078C13.7209 9.3102 13.5816 9.427 13.5052 9.52133C13.3929 9.66059 13.366 9.74145 13.3525 9.97505C13.3255 10.3793 13.4693 10.6444 13.8017 10.8151C13.959 10.896 14.1162 10.9004 17.0137 10.9004H18.8065C19.2682 10.9004 19.5001 11.4581 19.1744 11.7854C18.541 12.4233 18.285 12.7153 18.2625 12.8096C18.249 12.8815 18.2266 12.9803 18.2176 13.0253C18.1861 13.178 18.3164 13.5554 18.4467 13.6946C18.5186 13.771 18.6399 13.8608 18.7207 13.8923C18.8914 13.9686 19.2598 13.9731 19.4395 13.9057C19.6012 13.8473 22.8446 10.6129 22.9344 10.4243C23.0108 10.2581 23.0243 9.8852 22.9569 9.70102C22.903 9.56176 19.6776 6.3049 19.4979 6.21056C19.3811 6.14767 19.0576 6.08927 18.9813 6.11623Z" fill="#9A9AA9"/>
</svg>
