<svg width="18" height="20" viewBox="0 0 18 20" fill="none" xmlns="http://www.w3.org/2000/svg">
<path d="M13.0134 0.245697C11.8443 0.796534 11 2.12116 11 3.41956C11 4.87535 11.6105 5.93767 12.8315 6.61966C13.4291 6.94754 13.6759 7 14.5072 7C16.0789 7 17.0921 6.31801 17.7676 4.78354C18.1183 3.98352 18.0663 2.69823 17.6507 1.88509C17.3 1.18999 16.3517 0.350618 15.7022 0.153891C14.9229 -0.0821815 13.6239 -0.0428357 13.0134 0.245697Z" fill="#9A9AA9"/>
<path d="M7.32043 0.769749C5.62738 1.10836 3.91821 2.47892 3.12813 4.12359C2.7089 4.97818 2.67665 5.23617 2.5799 7.70317C2.48316 10.1379 2.45091 10.4443 2.0478 11.315C1.80594 11.8471 1.24159 12.6533 0.806235 13.1209C0.112893 13.8626 2.28882e-05 14.0561 2.28882e-05 14.6366C2.28882e-05 15.1687 0.0967684 15.4106 0.467626 15.7814C0.767027 16.0808 1.1731 16.249 1.59652 16.249H8.59424H15.6009C16.0223 16.249 16.4302 16.1006 16.7531 15.8298C17.1723 15.4751 17.253 15.2977 17.253 14.7011C17.253 14.0723 17.1562 13.8949 16.4306 13.0887C15.5115 12.0728 15.0117 11.1054 14.8504 9.97669L14.7537 9.23498L13.8346 9.12211C12.8027 8.99311 11.5772 8.42877 10.7388 7.70317C9.62619 6.71959 8.70711 4.75244 8.70711 3.34963C8.70711 2.8014 8.99735 1.51146 9.27146 0.882618C9.36821 0.640755 9.28759 0.608506 8.69099 0.624631C8.30401 0.640755 7.67516 0.705253 7.32043 0.769749Z" fill="#9A9AA9"/>
<path d="M5.48225 17.3461C5.48225 17.8459 6.40133 18.9585 7.07855 19.3132C7.86863 19.7002 9.31982 19.7486 10.0777 19.3939C10.771 19.0552 11.3676 18.4103 11.6901 17.6524L11.9319 17.0558H8.70709C5.67574 17.0558 5.48225 17.072 5.48225 17.3461Z" fill="#9A9AA9"/>
</svg>
