<svg width="24" height="24" viewBox="0 0 24 24" fill="none" xmlns="http://www.w3.org/2000/svg">
<path d="M9.14264 1.22949C6.21182 1.96381 3.38693 4.29212 2.08042 7.06819C1.23296 8.87711 0.985779 9.98754 0.985779 11.9039C0.985779 13.8203 1.23296 14.9307 2.08042 16.7397C3.08679 18.871 4.88766 20.6978 6.98867 21.7187C8.77188 22.5784 9.86652 22.8291 11.7557 22.8291C13.6448 22.8291 14.7395 22.5784 16.5227 21.7187C18.6237 20.6978 20.4245 18.871 21.4309 16.7397C22.2784 14.9307 22.5255 13.8203 22.5255 11.9039C22.5255 9.98754 22.2784 8.87711 21.4309 7.06819C20.4245 4.93689 18.6237 3.11005 16.5227 2.08918C15.6929 1.69515 14.5982 1.28322 14.0862 1.17576C12.8503 0.925018 10.3256 0.942928 9.14264 1.22949ZM16.9641 8.05325C17.4408 8.53682 17.5114 8.93084 17.1759 9.50397C16.6639 10.3816 11.1554 17.0979 10.8552 17.1874C10.2196 17.4023 9.72528 17.062 7.92441 15.2531C5.99995 13.3367 5.80574 12.9427 6.38838 12.1188C6.56493 11.8502 6.82977 11.7248 7.21819 11.7248C7.69489 11.7248 7.99503 11.9397 8.93078 12.889C9.54872 13.5337 10.1314 14.0531 10.202 14.0531C10.2726 14.0531 11.4908 12.6562 12.8856 10.9368C14.2981 9.21741 15.5516 7.7846 15.6752 7.73087C16.1696 7.53386 16.558 7.62341 16.9641 8.05325Z" fill="#FF8F6B"/>
</svg>
