<svg width="22" height="20" viewBox="0 0 22 20" fill="none" xmlns="http://www.w3.org/2000/svg">
<path d="M7.80317 0.206269C7.68456 0.326593 7.59983 0.635997 7.59983 0.893834V1.37513H5.85452C4.71922 1.37513 4.04143 1.44389 3.90587 1.5814C3.78725 1.70172 3.70253 2.26896 3.70253 2.95653V4.12539H12.6833H21.681L21.6301 2.78464L21.5793 1.46107L19.7662 1.40951L17.9362 1.35794V0.842266C17.9362 0.464106 17.8345 0.292214 17.5125 0.137512C16.9703 -0.103135 16.5806 0.206269 16.5806 0.876644V1.37513H14.9708H13.3611V0.876644C13.3611 0.206269 12.9713 -0.103135 12.4291 0.137512C12.1071 0.292214 12.0055 0.464106 12.0055 0.859455V1.37513H10.4804H8.95541V0.893834C8.95541 0.360971 8.6843 -4.76837e-07 8.27762 -4.76837e-07C8.12512 -4.76837e-07 7.92178 0.0859451 7.80317 0.206269Z" fill="#5B93FF"/>
<path d="M3.63474 6.37706C3.36362 9.05856 2.19443 12.0151 0.686346 13.7512C0.127167 14.4044 -0.0422805 14.731 0.00855389 15.0747L0.0593883 15.556L8.83679 15.6076L17.6142 15.642L18.1225 15.0919C19.9865 13.0464 21.3759 9.67737 21.6132 6.60051L21.7148 5.15663H12.7341H3.75335L3.63474 6.37706Z" fill="#5B93FF"/>
<path d="M21.4268 11.86C20.9184 13.3555 18.8851 16.0885 17.9192 16.587C17.5295 16.7933 16.2586 16.8449 10.5652 16.8449H3.70253V17.945C3.70253 18.7185 3.78725 19.131 3.97365 19.3201C4.21087 19.5607 5.22756 19.5951 12.751 19.5951C19.7831 19.5951 21.3251 19.5607 21.4776 19.3545C21.6132 19.1998 21.664 17.9621 21.6301 15.2806C21.5962 12.8054 21.5285 11.585 21.4268 11.86Z" fill="#5B93FF"/>
</svg>
