<svg width="22" height="23" viewBox="0 0 22 23" fill="none" xmlns="http://www.w3.org/2000/svg">
<path d="M8.02423 0.272644C4.33263 1.26881 1.22296 4.46021 0.25914 8.22349C-0.0863799 9.57016 -0.0863799 12.5217 0.25914 13.8684C0.768326 15.8607 1.60485 17.2996 3.16878 18.8861C4.73271 20.4726 6.15116 21.3212 8.11516 21.8377C9.44268 22.1882 12.3523 22.1882 13.6798 21.8377C17.426 20.8415 20.5539 17.687 21.5359 13.8869C21.8996 12.4849 21.8814 9.66239 21.5177 8.22349C20.5357 4.38643 17.4624 1.25036 13.6798 0.254196C12.3705 -0.0963058 9.31539 -0.077858 8.02423 0.272644ZM11.8795 4.93985C12.4614 5.45638 12.516 5.93601 12.225 9.21966C11.9341 12.6878 11.8068 13.0752 10.8975 13.0752C10.0064 13.0752 9.86094 12.6878 9.56998 9.21966C9.27902 5.95446 9.31539 5.45638 9.9155 4.93985C10.5884 4.34953 11.2067 4.34953 11.8795 4.93985ZM11.8068 15.2889C12.5887 16.0821 12.0068 17.5026 10.8975 17.5026C10.2065 17.5026 9.62453 16.9122 9.62453 16.2112C9.62453 15.8976 9.7882 15.4918 9.98824 15.2889C10.1883 15.0859 10.5884 14.9199 10.8975 14.9199C11.2067 14.9199 11.6067 15.0859 11.8068 15.2889Z" fill="#FF0004"/>
</svg>
