<svg width="21" height="21" viewBox="0 0 21 21" fill="none" xmlns="http://www.w3.org/2000/svg">
<path d="M15.2754 2.46747C13.8998 3.84315 12.667 4.96871 12.5241 4.96871C12.3811 4.96871 11.3271 4.52206 10.1658 3.98608C9.02234 3.4501 7.86105 3.00345 7.61092 3.00345C6.80695 3.00345 6.2531 3.43223 3.69826 6.00494C1.51861 8.18459 1.23276 8.54191 1.28635 9.00643C1.32209 9.39948 1.44715 9.54241 1.76874 9.57814C2.10819 9.63174 2.69777 9.14936 4.84169 7.00544L6.98868 4.85845C7.28696 4.56017 7.74033 4.48114 8.12194 4.66091L9.64765 5.37963C11.9166 6.45159 12.6849 6.59452 13.5424 6.14787C13.8104 6.00494 15.0968 4.80792 16.401 3.48583C18.4735 1.37764 18.7772 1.00246 18.7236 0.555805C18.6879 0.180619 18.5628 0.0376902 18.2233 0.00195789C17.866 -0.0337734 17.3122 0.412877 15.2754 2.46747Z" fill="#9A9AA9"/>
<path d="M16.5261 5.77254C16.2407 6.04648 16.0794 6.42493 16.0794 6.82048V12.7939C16.0794 19.1899 16.0973 19.4043 16.4546 19.8688C16.794 20.2976 16.937 20.3333 18.1161 20.3333C20.1529 20.3333 20.0099 20.8693 20.0099 12.8653C20.0099 4.86138 20.135 5.32589 18.134 5.32589C17.1156 5.32589 16.9012 5.37949 16.5261 5.77254Z" fill="#9A9AA9"/>
<path d="M5.75286 10.2033C5.37767 10.6142 5.3598 10.7392 5.3598 15.1164C5.3598 20.512 5.28834 20.3333 7.32507 20.3333C9.36179 20.3333 9.29033 20.4941 9.29033 15.1522V11.2869C9.29033 10.8914 9.12903 10.5129 8.84368 10.239C8.48636 9.86381 8.2541 9.79235 7.27147 9.79235C6.32457 9.79235 6.07444 9.86381 5.75286 10.2033Z" fill="#9A9AA9"/>
<path d="M11.4878 12.1146C10.8089 12.4005 10.7196 12.8471 10.7196 16.2953C10.7196 20.333 10.7196 20.333 12.6849 20.333C14.668 20.333 14.6501 20.3687 14.6501 16.1702C14.6501 12.9186 14.6323 12.6863 14.2928 12.3826C13.864 12.0074 12.131 11.8288 11.4878 12.1146Z" fill="#9A9AA9"/>
<path d="M0.393052 15.795C0.035732 16.0452 0 16.206 0 17.9032C0 20.2079 0.0893301 20.333 1.92953 20.333C3.07295 20.333 3.21588 20.2973 3.55534 19.8685C4.10918 19.1717 4.10918 16.6705 3.55534 15.9737C3.23375 15.5628 3.07295 15.5092 1.98313 15.5092C1.19702 15.5092 0.661043 15.5985 0.393052 15.795Z" fill="#9A9AA9"/>
</svg>
