<svg width="21" height="21" viewBox="0 0 21 21" fill="none" xmlns="http://www.w3.org/2000/svg">
<path d="M15.2761 2.46747C13.9004 3.84315 12.6676 4.96871 12.5247 4.96871C12.3818 4.96871 11.3277 4.52206 10.1664 3.98608C9.02297 3.4501 7.86168 3.00345 7.61156 3.00345C6.80758 3.00345 6.25374 3.43223 3.6989 6.00494C1.51924 8.18459 1.23339 8.54191 1.28699 9.00643C1.32272 9.39948 1.44778 9.54241 1.76937 9.57814C2.10882 9.63174 2.6984 9.14936 4.84232 7.00544L6.98931 4.85845C7.28759 4.56017 7.74096 4.48114 8.12257 4.66091L9.64828 5.37963C11.9173 6.45159 12.6855 6.59452 13.5431 6.14787C13.8111 6.00494 15.0974 4.80792 16.4016 3.48583C18.4741 1.37764 18.7778 1.00246 18.7242 0.555805C18.6885 0.180619 18.5634 0.0376902 18.224 0.00195789C17.8666 -0.0337734 17.3128 0.412877 15.2761 2.46747Z" fill="#295493"/>
<path d="M16.5248 5.77254C16.2394 6.04648 16.0781 6.42493 16.0781 6.82048V12.7939C16.0781 19.1899 16.096 19.4043 16.4533 19.8688C16.7928 20.2976 16.9357 20.3333 18.1149 20.3333C20.1516 20.3333 20.0086 20.8693 20.0086 12.8653C20.0086 4.86138 20.1337 5.32589 18.1327 5.32589C17.1144 5.32589 16.9 5.37949 16.5248 5.77254Z" fill="#295493"/>
<path d="M5.75273 10.2033C5.37755 10.6142 5.35968 10.7392 5.35968 15.1164C5.35968 20.512 5.28822 20.3333 7.32494 20.3333C9.36167 20.3333 9.29021 20.4941 9.29021 15.1522V11.2869C9.29021 10.8914 9.1289 10.5129 8.84355 10.239C8.48623 9.86381 8.25398 9.79235 7.27135 9.79235C6.32445 9.79235 6.07432 9.86381 5.75273 10.2033Z" fill="#295493"/>
<path d="M11.487 12.1146C10.8081 12.4005 10.7188 12.8471 10.7188 16.2953C10.7188 20.333 10.7188 20.333 12.684 20.333C14.6671 20.333 14.6493 20.3687 14.6493 16.1702C14.6493 12.9186 14.6314 12.6863 14.292 12.3826C13.8632 12.0074 12.1302 11.8288 11.487 12.1146Z" fill="#295493"/>
<path d="M0.393052 15.795C0.035732 16.0452 0 16.206 0 17.9032C0 20.2079 0.0893301 20.333 1.92953 20.333C3.07295 20.333 3.21588 20.2973 3.55534 19.8685C4.10918 19.1717 4.10918 16.6705 3.55534 15.9737C3.23375 15.5628 3.07295 15.5092 1.98313 15.5092C1.19702 15.5092 0.661043 15.5985 0.393052 15.795Z" fill="#295493"/>
</svg>
