<svg width="23" height="22" viewBox="0 0 23 22" fill="none" xmlns="http://www.w3.org/2000/svg">
<path d="M12.5986 17.55C13.7386 17.55 14.7386 17.3 15.5986 16.8C16.4586 16.3 17.1386 15.57 17.6386 14.61H22.4386C21.7386 16.75 20.5086 18.42 18.7486 19.62C17.0086 20.8 14.9686 21.39 12.6286 21.39C10.2286 21.39 8.11859 20.75 6.29859 19.47C4.49859 18.17 3.24859 16.44 2.54859 14.28H-0.00140619V11.79H2.06859C2.02859 11.31 2.00859 10.95 2.00859 10.71C2.00859 10.43 2.02859 10.05 2.06859 9.56996H-0.00140619V7.07996H2.57859C3.27859 4.91996 4.52859 3.19996 6.32859 1.91996C8.14859 0.639961 10.2486 -3.95775e-05 12.6286 -3.95775e-05C14.9686 -3.95775e-05 17.0086 0.59996 18.7486 1.79996C20.5086 2.99996 21.7386 4.65996 22.4386 6.77996H17.6386C17.1386 5.81996 16.4586 5.09996 15.5986 4.61996C14.7386 4.11996 13.7386 3.86996 12.5986 3.86996C11.3786 3.86996 10.2886 4.14996 9.32859 4.70996C8.38859 5.26996 7.65859 6.05996 7.13859 7.07996H12.8986V9.56996H6.38859C6.34859 10.05 6.32859 10.43 6.32859 10.71C6.32859 10.95 6.34859 11.31 6.38859 11.79H12.8986V14.28H7.10859C7.62859 15.3 8.36859 16.1 9.32859 16.68C10.2886 17.26 11.3786 17.55 12.5986 17.55Z" fill="#FF8F6B"/>
</svg>
