<svg width="19" height="20" viewBox="0 0 19 20" fill="none" xmlns="http://www.w3.org/2000/svg">
<path d="M10.2168 0C10.973 0 11.658 0.420067 12.0361 1.04004C12.22 1.33993 12.343 1.70976 12.3125 2.09961C12.2921 2.39961 12.3834 2.70047 12.5469 2.98047C13.0681 3.83035 14.2238 4.14989 15.123 3.66992C16.1346 3.09027 17.4116 3.44004 17.9941 4.42969L18.6787 5.61035C19.2714 6.60033 18.9448 7.87045 17.9229 8.44043C17.0543 8.95047 16.7474 10.0805 17.2686 10.9404C17.432 11.2103 17.6163 11.4401 17.9023 11.5801C18.26 11.7701 18.5363 12.0701 18.7305 12.3701C19.1084 12.99 19.0777 13.75 18.71 14.4199L17.9941 15.6201C17.616 16.26 16.911 16.6601 16.1855 16.6602C15.828 16.6602 15.4295 16.5602 15.1025 16.3604C14.8369 16.1904 14.5301 16.1299 14.2031 16.1299C13.1914 16.1299 12.3432 16.9602 12.3125 17.9502C12.3124 19.0999 11.3722 19.9998 10.1973 20H8.80664C7.62137 19.9999 6.68175 19.1 6.68164 17.9502C6.6612 16.9602 5.81252 16.1299 4.80078 16.1299C4.46356 16.1299 4.15684 16.1904 3.90137 16.3604C3.57442 16.5602 3.16571 16.6601 2.81836 16.6602C2.08256 16.6602 1.37715 16.2601 0.999023 15.6201L0.293945 14.4199C-0.0840977 13.77 -0.104575 12.9901 0.273438 12.3701C0.436906 12.0702 0.743472 11.7701 1.09082 11.5801C1.37692 11.4401 1.56164 11.2104 1.73535 10.9404C2.24633 10.0804 1.93898 8.95043 1.07031 8.44043C0.0587553 7.87045 -0.267827 6.60028 0.314453 5.61035L0.999023 4.42969C1.59176 3.43988 2.85899 3.09012 3.88086 3.66992C4.76986 4.14987 5.925 3.83024 6.44629 2.98047C6.6098 2.70047 6.70208 2.39961 6.68164 2.09961C6.66129 1.70975 6.77366 1.33994 6.96777 1.04004C7.34591 0.420117 8.03039 0.0199985 8.77637 0H10.2168ZM9.51172 7.17969C7.90749 7.17987 6.6095 8.43999 6.60938 10.0098C6.60938 11.5796 7.90741 12.8299 9.51172 12.8301C11.1162 12.8301 12.3838 11.5798 12.3838 10.0098C12.3837 8.43987 11.1161 7.17969 9.51172 7.17969Z" fill="#295493"/>
</svg>
