<svg width="24" height="24" viewBox="0 0 24 24" fill="none" xmlns="http://www.w3.org/2000/svg">
<rect x="0.5" y="0.5" width="23" height="23" rx="6.5" stroke="#D8D8D8" stroke-opacity="0.23"/>
<path d="M11.2905 5.85926C10.8669 5.9844 10.4241 6.45609 10.299 6.91816C9.90431 8.3621 11.7333 9.41137 12.7922 8.34285C13.5912 7.54387 13.235 6.15768 12.1472 5.84963C11.7333 5.74374 11.7044 5.74374 11.2905 5.85926Z" fill="#ADADAD"/>
<path d="M11.2905 10.4686C10.8669 10.5938 10.4241 11.0655 10.299 11.5275C9.90431 12.9715 11.7333 14.0207 12.7922 12.9522C13.5912 12.1532 13.235 10.7671 12.1472 10.459C11.7333 10.3531 11.7044 10.3531 11.2905 10.4686Z" fill="#ADADAD"/>
<path d="M11.2905 15.079C10.8669 15.2041 10.4241 15.6758 10.299 16.1379C9.90431 17.5818 11.7333 18.6311 12.7922 17.5626C13.5912 16.7636 13.235 15.3774 12.1472 15.0694C11.7333 14.9635 11.7044 14.9635 11.2905 15.079Z" fill="#ADADAD"/>
</svg>
