<svg width="23" height="23" viewBox="0 0 23 23" fill="none" xmlns="http://www.w3.org/2000/svg">
<path d="M10.6185 0C11.2465 0 11.8746 0 12.5026 0C12.871 0.05384 13.2445 0.0869292 13.6079 0.164324C18.141 1.12391 21.1215 3.81647 22.562 8.21621C22.8043 8.95707 22.9069 9.72822 23 10.4994C23 11.1275 23 11.7556 23 12.3838C22.9692 12.6277 22.9445 12.8734 22.9064 13.1162C22.5278 15.5519 21.5084 17.6797 19.7986 19.4564C17.7356 21.6011 15.2049 22.7822 12.2368 22.9762C10.3314 23.1007 8.50722 22.7334 6.76438 21.9404C2.15047 19.84 -0.671268 14.8245 0.137906 9.83141C0.912873 5.04918 3.74246 1.94329 8.3345 0.436328C9.0747 0.192927 9.84687 0.0930984 10.6185 0ZM8.69899 12.1314C8.04123 12.1314 7.38402 12.1325 6.72625 12.1303C6.59391 12.1297 6.51933 12.1527 6.52998 12.3176C6.61241 13.5952 6.89448 14.8268 7.35654 16.0196C7.41318 16.166 7.49337 16.2277 7.6543 16.2272C8.64068 16.2215 9.62705 16.2204 10.6134 16.2277C10.8091 16.2288 10.8742 16.1621 10.8731 15.9675C10.8669 14.7791 10.8663 13.5907 10.8736 12.4028C10.8747 12.1998 10.8136 12.1247 10.6044 12.128C9.96967 12.1381 9.33433 12.1314 8.69899 12.1314ZM14.4524 12.1297C13.8097 12.1297 13.1671 12.1353 12.5245 12.1263C12.3243 12.1235 12.2458 12.1813 12.2469 12.3927C12.2548 13.5811 12.2548 14.7696 12.2469 15.958C12.2458 16.166 12.317 16.2294 12.5206 16.2277C13.4918 16.2199 14.4636 16.2193 15.4348 16.2283C15.6249 16.23 15.7141 16.1599 15.7786 15.9877C16.2188 14.82 16.5047 13.6204 16.5844 12.372C16.5967 12.1785 16.5451 12.1241 16.3573 12.1269C15.723 12.1353 15.0877 12.1297 14.4524 12.1297ZM14.4142 10.7506C15.0412 10.7506 15.6687 10.7506 16.2956 10.7506C16.5832 10.7506 16.59 10.7495 16.5698 10.4736C16.4784 9.24422 16.193 8.05918 15.7466 6.91115C15.6928 6.77206 15.5986 6.74627 15.4668 6.74627C14.481 6.74907 13.4957 6.75131 12.5099 6.74458C12.3176 6.74346 12.2463 6.80459 12.2475 7.00201C12.2542 8.16686 12.2542 9.33171 12.2475 10.4966C12.2463 10.6945 12.3176 10.7562 12.5099 10.754C13.1447 10.745 13.7795 10.7506 14.4142 10.7506ZM8.68778 10.7506C9.33826 10.7506 9.98874 10.7489 10.6392 10.7517C10.7777 10.7523 10.8714 10.7237 10.8708 10.5566C10.8686 9.35302 10.8686 8.14891 10.8708 6.94536C10.8708 6.80067 10.8058 6.74683 10.6661 6.74683C9.64948 6.74907 8.63282 6.74907 7.61561 6.74683C7.49393 6.74627 7.42327 6.79338 7.37897 6.90723C6.92532 8.07039 6.63821 9.27114 6.54456 10.5184C6.52942 10.7181 6.60232 10.7568 6.78176 10.7545C7.4171 10.7456 8.05244 10.7506 8.68778 10.7506ZM3.28488 12.1314C2.74711 12.1314 2.20878 12.1353 1.67102 12.1291C1.49886 12.1275 1.42428 12.1813 1.44335 12.3647C1.57513 13.6406 1.90766 14.857 2.48972 16.0034C2.57159 16.1649 2.67029 16.2294 2.85422 16.2277C3.78059 16.2193 4.70696 16.2238 5.63333 16.2238C5.93053 16.2238 5.93502 16.2215 5.83969 15.94C5.44436 14.7735 5.20828 13.5761 5.13426 12.3473C5.12416 12.1813 5.05743 12.1275 4.8993 12.1291C4.36097 12.1348 3.82265 12.1314 3.28488 12.1314ZM3.26862 10.7506C3.80694 10.7506 4.34471 10.7467 4.88304 10.7529C5.04622 10.7545 5.12416 10.7097 5.13762 10.5291C5.22566 9.31657 5.45277 8.13096 5.85595 6.98294C5.92829 6.77655 5.86212 6.74178 5.67146 6.74346C4.7221 6.74963 3.7733 6.75075 2.82394 6.7429C2.64169 6.74122 2.54075 6.80067 2.45944 6.96555C1.90149 8.08946 1.57288 9.27675 1.44503 10.5229C1.42821 10.6895 1.48709 10.7545 1.65476 10.7529C2.19252 10.7473 2.73029 10.7501 3.26862 10.7506ZM18.8308 16.2244C19.2945 16.2244 19.7577 16.2193 20.2214 16.2272C20.3768 16.2294 20.4659 16.175 20.5366 16.0354C21.122 14.8727 21.4579 13.6406 21.5886 12.349C21.6043 12.1964 21.5476 12.1291 21.3895 12.1291C20.328 12.132 19.2659 12.132 18.2044 12.1291C18.0513 12.1286 17.9947 12.192 17.9868 12.3428C17.9739 12.6109 17.9532 12.8801 17.9184 13.1465C17.7917 14.1195 17.5831 15.0746 17.2595 16.0023C17.2012 16.17 17.2287 16.2316 17.4171 16.2283C17.8887 16.2182 18.3597 16.2244 18.8308 16.2244ZM19.7835 10.7506C20.314 10.7506 20.845 10.7473 21.3755 10.7523C21.542 10.754 21.6054 10.6906 21.588 10.524C21.4585 9.27843 21.1344 8.0889 20.5753 6.96499C20.4996 6.813 20.411 6.74234 20.2327 6.74346C19.2984 6.75131 18.3637 6.75131 17.4294 6.74346C17.2292 6.74178 17.2018 6.80235 17.2634 6.97957C17.6627 8.12928 17.896 9.31376 17.9835 10.5263C17.9964 10.7046 18.0704 10.754 18.2358 10.7523C18.7517 10.7467 19.2676 10.7506 19.7835 10.7506ZM9.18798 1.6797C7.28981 1.97357 3.9634 4.15185 3.53273 5.36662C4.43387 5.36662 5.32996 5.35989 6.22549 5.37166C6.44419 5.37447 6.56195 5.29988 6.65952 5.10807C7.15186 4.13671 7.76701 3.24667 8.48759 2.43065C8.7046 2.18613 8.93339 1.95282 9.18798 1.6797ZM9.17396 21.31C9.14087 21.2438 9.13751 21.2275 9.12797 21.218C8.10403 20.2068 7.26402 19.0605 6.61185 17.7779C6.53896 17.6343 6.43297 17.6018 6.28493 17.6029C5.43314 17.6074 4.58135 17.6046 3.72956 17.6062C3.67404 17.6062 3.609 17.5821 3.54619 17.6623C4.99911 19.5035 6.85803 20.7144 9.17396 21.31ZM13.9516 1.67914C13.9802 1.73073 13.9847 1.74587 13.9948 1.75597C15.0215 2.76603 15.8587 3.91462 16.512 5.19724C16.5793 5.3296 16.6763 5.36942 16.8188 5.36886C17.656 5.36437 18.4932 5.36774 19.3298 5.36493C19.3915 5.36493 19.4807 5.40307 19.5093 5.32287C19.5295 5.26679 19.4594 5.22024 19.4229 5.17425C18.3653 3.84115 17.0453 2.84903 15.487 2.17659C15.0019 1.9674 14.5045 1.78738 13.9516 1.67914ZM13.969 21.2999C16.1935 20.7161 17.9969 19.5344 19.4184 17.7627C19.4459 17.7285 19.493 17.6926 19.4734 17.6477C19.4426 17.5776 19.3685 17.6051 19.313 17.6051C18.5055 17.6034 17.6986 17.6107 16.8917 17.599C16.6752 17.5956 16.5575 17.6668 16.4582 17.8609C15.8386 19.0751 15.044 20.1636 14.0806 21.1288C14.0391 21.1698 13.9819 21.2001 13.969 21.2999ZM10.8702 3.73291C10.8702 3.25508 10.8714 2.77725 10.8691 2.29886C10.8691 2.24389 10.8994 2.16594 10.8265 2.1407C10.7738 2.12219 10.7345 2.18108 10.6964 2.21473C9.71509 3.07169 8.89358 4.061 8.22459 5.17874C8.13375 5.33072 8.17637 5.36886 8.33899 5.3683C9.1005 5.36437 9.86257 5.36269 10.6241 5.36942C10.8074 5.3711 10.877 5.30829 10.8736 5.12209C10.8641 4.6594 10.8702 4.19616 10.8702 3.73291ZM12.2508 3.72393C12.2508 4.19447 12.2542 4.66501 12.2492 5.13555C12.2475 5.29203 12.2957 5.36942 12.4662 5.3683C13.2428 5.36381 14.0195 5.36437 14.7961 5.36774C14.9526 5.3683 14.9834 5.32287 14.9021 5.18659C14.2309 4.061 13.4026 3.06776 12.4151 2.20688C12.3781 2.17435 12.3406 2.11602 12.2839 2.14631C12.2295 2.17491 12.2525 2.24053 12.2525 2.29044C12.2503 2.76827 12.2508 3.2461 12.2508 3.72393ZM10.8702 19.2495C10.8702 18.7789 10.8669 18.3084 10.8719 17.8379C10.8736 17.6825 10.8288 17.6023 10.6566 17.6034C9.87995 17.6079 9.1033 17.6074 8.32665 17.604C8.17413 17.6034 8.13543 17.6444 8.21842 17.784C8.89021 18.9085 9.71621 19.9045 10.7048 20.7649C10.7424 20.7974 10.7794 20.8552 10.836 20.8271C10.8921 20.7991 10.8686 20.7335 10.8686 20.6841C10.8708 20.2051 10.8702 19.7273 10.8702 19.2495ZM12.2508 19.2601C12.2508 19.7307 12.2497 20.2012 12.252 20.6712C12.252 20.7267 12.2217 20.8041 12.2935 20.8305C12.3456 20.8495 12.3854 20.7907 12.4235 20.757C13.4032 19.8989 14.2241 18.9091 14.892 17.7908C14.9828 17.6388 14.9458 17.6006 14.7815 17.6018C14.02 17.6057 13.2585 17.6074 12.497 17.6006C12.3136 17.599 12.2441 17.6623 12.2475 17.848C12.257 18.3191 12.2508 18.7896 12.2508 19.2601Z" fill="#9A9AA9"/>
</svg>
