<svg width="24" height="24" viewBox="0 0 24 24" fill="none" xmlns="http://www.w3.org/2000/svg">
<path d="M6.71466 4.19338C3.32497 5.78853 2.02891 6.46979 2.06215 6.63595C2.09538 6.80211 3.88992 7.64953 6.81436 8.87913L11.5001 10.8564L16.1858 8.87913C19.1103 7.64953 20.9048 6.80211 20.9381 6.63595C20.9713 6.45317 19.6752 5.78853 16.2689 4.19338C13.6768 2.98041 11.5167 2.00006 11.4835 2.00006C11.4503 2.00006 9.30677 2.99702 6.71466 4.19338Z" fill="#FFC327"/>
<path d="M0.899313 13.5813L0.949161 19.3471L5.76784 21.2911C8.42641 22.3546 10.6364 23.1688 10.7194 23.1189C10.7859 23.0525 10.8191 20.4603 10.8025 17.3697L10.7527 11.7535L6.10016 9.7928C3.54128 8.71275 1.31472 7.81548 1.14855 7.81548C0.882696 7.81548 0.86608 8.16442 0.899313 13.5813Z" fill="#FFC327"/>
<path d="M16.9009 9.79312L12.2484 11.7538L12.1986 17.3701C12.182 20.4773 12.2152 23.0528 12.2817 23.1193C12.3647 23.1857 14.5913 22.3715 17.2333 21.3081L22.0519 19.364L22.1018 13.5816C22.135 8.16474 22.1184 7.8158 21.8525 7.8158C21.6864 7.83242 19.4598 8.71307 16.9009 9.79312Z" fill="#FFC327"/>
</svg>
